<svg id="Layer_1" data-name="Layer 1" xmlns="http://www.w3.org/2000/svg" viewBox="0 0 378.98 60"><defs><style>.cls-1{fill:#fff;}</style></defs><path class="cls-1" d="M290.77,0,264.93,14.6V45.41L291.22,60,316.6,44.15V14.6Zm12.38,44a1.46,1.46,0,0,1-1.3.78,1.44,1.44,0,0,1-.67-.16L285,36.22l-7.87,3.9L292,48.94a1.45,1.45,0,0,1,.51,2,1.48,1.48,0,0,1-1.26.7,1.42,1.42,0,0,1-.74-.2L273.31,41.25h0l-.11-.08A1.56,1.56,0,0,1,273,41l-.08-.1a1.7,1.7,0,0,1-.15-.22l0,0a1.52,1.52,0,0,1-.15-.61V19a1.46,1.46,0,0,1,2.92,0V37.67l8-4v-20a1.46,1.46,0,0,1,2.92,0v20L302.52,42A1.44,1.44,0,0,1,303.15,44Zm7-8.73a1.48,1.48,0,0,1-1.95.67l-12.57-6.08a1.42,1.42,0,0,1-.82-1.3V9.16a1.46,1.46,0,0,1,2.92,0V27.62l11.75,5.67A1.45,1.45,0,0,1,310.11,35.23Z"/><path class="cls-1" d="M330.71,27.15V23.29h-5.92v3.86h-1.6V14.78h1.6v8.06h5.92V14.78h1.59V27.15Z"/><path class="cls-1" d="M341,14.78a7.51,7.51,0,0,1,2.82.5,6.16,6.16,0,0,1,2.07,1.36,5.83,5.83,0,0,1,1.28,2,6.64,6.64,0,0,1,0,4.7,5.61,5.61,0,0,1-1.27,2,5.93,5.93,0,0,1-2.05,1.36,7.12,7.12,0,0,1-2.77.51,7.42,7.42,0,0,1-2.84-.51,6.16,6.16,0,0,1-2.08-1.36,5.66,5.66,0,0,1-1.27-2,6.46,6.46,0,0,1-.43-2.36,6.37,6.37,0,0,1,.44-2.38,5.85,5.85,0,0,1,1.27-2,6.23,6.23,0,0,1,2.06-1.34A7.28,7.28,0,0,1,341,14.78Zm0,11.81a4.42,4.42,0,0,0,2-.46,5.31,5.31,0,0,0,1.59-1.23A6,6,0,0,0,346,21a5.67,5.67,0,0,0-.41-2.12,6,6,0,0,0-1.09-1.78,5.35,5.35,0,0,0-1.6-1.23,4.32,4.32,0,0,0-1.93-.46,4.23,4.23,0,0,0-1.91.46,5.39,5.39,0,0,0-1.58,1.23,5.66,5.66,0,0,0-1.05,1.78,5.86,5.86,0,0,0-.39,2.12,6.07,6.07,0,0,0,.38,2.12,5.64,5.64,0,0,0,1,1.78,5.18,5.18,0,0,0,1.56,1.23A4.31,4.31,0,0,0,341,26.59Z"/><path class="cls-1" d="M357.37,14.78l-3.68,6.76v5.61H352.1V21.54l-3.64-6.76h1.65l3.23,6,3.43-6Z"/><path class="cls-1" d="M364.47,14.78a7.51,7.51,0,0,1,2.82.5,6.16,6.16,0,0,1,2.07,1.36,5.68,5.68,0,0,1,1.28,2,6.64,6.64,0,0,1,0,4.7,5.61,5.61,0,0,1-1.27,2,5.93,5.93,0,0,1-2.05,1.36,7.12,7.12,0,0,1-2.77.51,7.33,7.33,0,0,1-2.83-.51,6.1,6.1,0,0,1-2.09-1.36,5.66,5.66,0,0,1-1.27-2,6.46,6.46,0,0,1-.43-2.36,6.57,6.57,0,0,1,.44-2.38,5.85,5.85,0,0,1,1.27-2,6.23,6.23,0,0,1,2.06-1.34A7.28,7.28,0,0,1,364.47,14.78Zm0,11.81a4.42,4.42,0,0,0,2-.46A5.31,5.31,0,0,0,368,24.9a6,6,0,0,0,1.47-3.9,5.67,5.67,0,0,0-.41-2.12A6.14,6.14,0,0,0,368,17.1a5.52,5.52,0,0,0-1.61-1.23,4.32,4.32,0,0,0-1.93-.46,4.23,4.23,0,0,0-1.91.46A5.35,5.35,0,0,0,361,17.1a5.69,5.69,0,0,0-1.06,1.78,5.86,5.86,0,0,0-.39,2.12,6.07,6.07,0,0,0,.38,2.12,5.64,5.64,0,0,0,1,1.78,5.18,5.18,0,0,0,1.56,1.23A4.31,4.31,0,0,0,364.45,26.59Z"/><path class="cls-1" d="M378.17,15.85a5,5,0,0,0-.52-.25l-.55-.18a2.32,2.32,0,0,0-1.34,0,2.06,2.06,0,0,0-.74.4,2.45,2.45,0,0,0-.57.69,2.13,2.13,0,0,0-.23,1,1.85,1.85,0,0,0,.35,1.08,6.07,6.07,0,0,0,.89,1c.35.32.73.63,1.14.94a11,11,0,0,1,1.14,1,5.44,5.44,0,0,1,.88,1.17,2.72,2.72,0,0,1,.36,1.39,3.43,3.43,0,0,1-.2,1.15,2.68,2.68,0,0,1-.6,1,2.94,2.94,0,0,1-1,.68,3.9,3.9,0,0,1-1.47.25A4.92,4.92,0,0,1,374.6,27a5,5,0,0,1-.78-.27,2.66,2.66,0,0,1-.61-.39l0-.77a2.74,2.74,0,0,0,.58.49,3.52,3.52,0,0,0,.7.34,2.65,2.65,0,0,0,.92.15,1.8,1.8,0,0,0,.84-.2,1.75,1.75,0,0,0,.62-.52,2.23,2.23,0,0,0,.37-.72,2.54,2.54,0,0,0,.13-.81,2.28,2.28,0,0,0-.34-1.23,5,5,0,0,0-.88-1c-.36-.33-.74-.64-1.15-.95s-.78-.63-1.14-1a5,5,0,0,1-.88-1.1,2.6,2.6,0,0,1-.35-1.34,3,3,0,0,1,.16-.9,3.27,3.27,0,0,1,.57-1,2.62,2.62,0,0,1,1.23-.85,4.9,4.9,0,0,1,1.4-.21,7.15,7.15,0,0,1,.82,0,5.62,5.62,0,0,1,.7.12l.65.15Z"/><path class="cls-1" d="M329.78,43v.63h-6.59V30.21h1.73V43Z"/><path class="cls-1" d="M331.48,30.21h1.73v9.47c0,.2,0,.55,0,1a2.71,2.71,0,0,0,.36,1.27,2.12,2.12,0,0,0,.92.8,3.79,3.79,0,0,0,1.64.29,6.67,6.67,0,0,0,1.74-.31,3.86,3.86,0,0,0,1.7-1V30.21h1.73V43.59h-1.73V42.48a6,6,0,0,1-1.89.86,9.2,9.2,0,0,1-2.26.25,4.08,4.08,0,0,1-3-1,3.55,3.55,0,0,1-1-2.63Z"/><path class="cls-1" d="M354.29,42.66a7.86,7.86,0,0,1-1.77.7,8.66,8.66,0,0,1-2,.23,8.09,8.09,0,0,1-3.07-.54,6.82,6.82,0,0,1-2.24-1.47,6.21,6.21,0,0,1-1.38-2.13,7.08,7.08,0,0,1-.47-2.55,6.94,6.94,0,0,1,.48-2.57,6.31,6.31,0,0,1,1.38-2.13,6.53,6.53,0,0,1,2.22-1.45,7.87,7.87,0,0,1,3-.54,8.05,8.05,0,0,1,3.05.55,6.92,6.92,0,0,1,2.24,1.47,6.11,6.11,0,0,1,1.38,2.13,7.18,7.18,0,0,1,.32,3.94,7.29,7.29,0,0,1-.41,1.4,7,7,0,0,1-.69,1.26,4.06,4.06,0,0,1-1,1L357,43.59h-1.73Zm-3.91.32a4.87,4.87,0,0,0,3.1-1.11l-1.83-1.76h1.87l.87.87a6.38,6.38,0,0,0,1-1.87,6.17,6.17,0,0,0,.39-2.17,6,6,0,0,0-.44-2.29,6.42,6.42,0,0,0-1.17-1.92,5.6,5.6,0,0,0-1.73-1.33,4.66,4.66,0,0,0-2.09-.5,4.52,4.52,0,0,0-2.07.5,5.49,5.49,0,0,0-1.7,1.33,6.17,6.17,0,0,0-1.15,1.92,6.36,6.36,0,0,0-.41,2.29,6.53,6.53,0,0,0,.4,2.29,6.18,6.18,0,0,0,1.13,1.93,5.6,5.6,0,0,0,1.69,1.33A4.58,4.58,0,0,0,350.38,43Z"/><path class="cls-1" d="M359.74,30.21h1.73v9.47c0,.2,0,.55,0,1a2.5,2.5,0,0,0,.36,1.27,2.15,2.15,0,0,0,.91.8,3.84,3.84,0,0,0,1.65.29,6.74,6.74,0,0,0,1.74-.31,3.86,3.86,0,0,0,1.7-1V30.21h1.72V43.59h-1.72V42.48a6.07,6.07,0,0,1-1.89.86,9.25,9.25,0,0,1-2.26.25,4.08,4.08,0,0,1-3-1,3.51,3.51,0,0,1-1-2.63Z"/><path class="cls-1" d="M378.53,43v.63H372V30.21h6.62v.63h-4.9v8.09h3.95v.49h-3.95V43Z"/><path class="cls-1" d="M2.56,18.37a4.75,4.75,0,0,1,1.41.2A3.4,3.4,0,0,1,5,19a3,3,0,0,1,.68.65,2.23,2.23,0,0,1,.38.73,2.07,2.07,0,0,1,.11.69A2.22,2.22,0,0,1,6,22a2.8,2.8,0,0,1-.58.88,2.62,2.62,0,0,1-1.12.69,4.85,4.85,0,0,1-1.68.27H1.3c0,.84,0,2.27,0,4.28H0V18.37ZM1.31,23.18H2.89A1.78,1.78,0,0,0,3.74,23a1.33,1.33,0,0,0,.56-.51,2.73,2.73,0,0,0,.32-.67,2.39,2.39,0,0,0,0-1.4,2.57,2.57,0,0,0-.32-.67,1.43,1.43,0,0,0-.59-.52A1.8,1.8,0,0,0,2.85,19H1.31Z"/><path class="cls-1" d="M18,18.37a5.13,5.13,0,0,1,1.41.18,3.42,3.42,0,0,1,1.05.45,2.23,2.23,0,0,1,.68.65,1.87,1.87,0,0,1,.37.73,1.8,1.8,0,0,1,.08.72,2.32,2.32,0,0,1-.74,1.56,3.14,3.14,0,0,1-1.93.79l-.45,0q1.27,1.5,4.23,4.62h-1.6l-3.52-4.18a.85.85,0,0,0-.83-.26V28.1H15.42V18.37ZM16.74,23H18a2.18,2.18,0,0,0,1.57-.59,1.8,1.8,0,0,0,.62-1.31,2.38,2.38,0,0,0-.11-.7,2.94,2.94,0,0,0-.32-.67,1.54,1.54,0,0,0-.58-.52,1.83,1.83,0,0,0-.85-.19H16.74Z"/><path class="cls-1" d="M40.18,19.6a5,5,0,0,1,1.12,1.65,4.83,4.83,0,0,1,.41,2,4.92,4.92,0,0,1-.42,2,4.83,4.83,0,0,1-1.12,1.64A5.09,5.09,0,0,1,38.5,28a5.27,5.27,0,0,1-2,.41A5.68,5.68,0,0,1,34.41,28a5.86,5.86,0,0,1-1.68-1.09,5.18,5.18,0,0,1-1.12-1.65,5,5,0,0,1-.41-2,5,5,0,0,1,.42-2,5.23,5.23,0,0,1,1.11-1.63,5.5,5.5,0,0,1,1.68-1.1,5.1,5.1,0,0,1,2.05-.4,4.93,4.93,0,0,1,2,.41A5.08,5.08,0,0,1,40.18,19.6Zm-4.5-.84a3.11,3.11,0,0,0-2.34,1.62,4.68,4.68,0,0,0-.53,3.3,5.7,5.7,0,0,0,.89,2.19,4.68,4.68,0,0,0,1.61,1.47,3.19,3.19,0,0,0,1.91.37,3,3,0,0,0,1.72-.81A4,4,0,0,0,40,25.11a4.93,4.93,0,0,0,.09-2.3,5.45,5.45,0,0,0-.81-2.08,4.52,4.52,0,0,0-1.47-1.45,3.21,3.21,0,0,0-1.76-.54Z"/><path class="cls-1" d="M57.52,18.37v1l-5.25-.08v3.1l3.92-.11v1l-3.92,0V28.1H51V18.37Z"/><path class="cls-1" d="M73.34,18.37v1l-5.26-.11v3l3.92,0v1l-3.92,0v3.94l5.79-.11v1h-7.1V18.37Z"/><path class="cls-1" d="M89.64,19l-.13,1.06a2.76,2.76,0,0,0-.68-.6,3.86,3.86,0,0,0-1.77-.64,3.43,3.43,0,0,0-1.36,0,1.92,1.92,0,0,0-1,.57,1.31,1.31,0,0,0-.32.91,1.18,1.18,0,0,0,.31.8,2.81,2.81,0,0,0,.66.47c.28.14.53.25.74.34l.93.33c.47.15.83.27,1.08.37a7.22,7.22,0,0,1,.9.44,3.31,3.31,0,0,1,.82.62,2.39,2.39,0,0,1,.58,1.18,2.79,2.79,0,0,1-.16,1.52,2.71,2.71,0,0,1-1,1.22,3.77,3.77,0,0,1-1.58.62,6.37,6.37,0,0,1-2,0,7.06,7.06,0,0,1-2-.65,3.66,3.66,0,0,0-.61-.29L83.35,26l.22.34a3.82,3.82,0,0,0,1,.81,4.32,4.32,0,0,0,1.32.41,4.47,4.47,0,0,0,1.46,0,2.52,2.52,0,0,0,1.15-.45,1.5,1.5,0,0,0,.57-1,1.36,1.36,0,0,0-.26-1.1,1.89,1.89,0,0,0-.64-.57,3.58,3.58,0,0,0-.76-.38,10.19,10.19,0,0,0-1-.34l-1-.36a8.49,8.49,0,0,1-.87-.43,4.28,4.28,0,0,1-.85-.64,2,2,0,0,1-.57-1.17,2.65,2.65,0,0,1,.14-1.26,2.39,2.39,0,0,1,.67-.94,3.87,3.87,0,0,1,2.77-.81A6.19,6.19,0,0,1,89.64,19Z"/><path class="cls-1" d="M101.07,18.37V28.1H99.74V18.37Z"/><path class="cls-1" d="M119.3,19.6a5.18,5.18,0,0,1,1.12,1.65,4.83,4.83,0,0,1,.41,2,4.92,4.92,0,0,1-.42,2,5,5,0,0,1-1.12,1.64A5.09,5.09,0,0,1,117.62,28a5.27,5.27,0,0,1-2,.41,5.68,5.68,0,0,1-2-.41,6.05,6.05,0,0,1-1.69-1.09,5.32,5.32,0,0,1-1.11-1.65,4.86,4.86,0,0,1-.41-2,5.12,5.12,0,0,1,.41-2,5.43,5.43,0,0,1,1.12-1.63,5.5,5.5,0,0,1,1.68-1.1,5.1,5.1,0,0,1,2-.4,4.93,4.93,0,0,1,2,.41A5.08,5.08,0,0,1,119.3,19.6Zm-4.5-.84a3.11,3.11,0,0,0-2.34,1.62,4.68,4.68,0,0,0-.53,3.3,5.7,5.7,0,0,0,.89,2.19,4.68,4.68,0,0,0,1.61,1.47,3.19,3.19,0,0,0,1.91.37,3,3,0,0,0,1.72-.81,3.86,3.86,0,0,0,1-1.79,4.8,4.8,0,0,0,.1-2.3,5.45,5.45,0,0,0-.81-2.08,4.52,4.52,0,0,0-1.47-1.45,3.21,3.21,0,0,0-1.76-.54Z"/><path class="cls-1" d="M131.59,18.37,137.18,26l-.08-7.66h1l-.07,9.73h-.83l-6.19-8.42.06,8.42h-1l.07-9.73Z"/><path class="cls-1" d="M152.79,18.37,157,28.1h-1.44L154,24.42h-3.9L148.5,28.1h-1.11l4.48-9.73Zm-2.38,5.4h3.33L152.07,20Z"/><path class="cls-1" d="M167.56,18.37v8.84l5.63-.11v1h-6.94V18.37Z"/><path class="cls-1" d="M189,18.37v1l-5.25-.11v3l3.91,0v1l-3.91,0v3.94l5.78-.11v1h-7.09V18.37Z"/><path class="cls-1" d="M205.31,19l-.14,1.06a2.69,2.69,0,0,0-.67-.6,3.86,3.86,0,0,0-1.78-.64,3.38,3.38,0,0,0-1.35,0,2,2,0,0,0-1,.57,1.35,1.35,0,0,0-.32.91,1.23,1.23,0,0,0,.31.8,3.12,3.12,0,0,0,.67.47c.28.14.52.25.74.34l.93.33c.46.15.82.27,1.08.37a6.55,6.55,0,0,1,.89.44,3.38,3.38,0,0,1,.83.62,2.38,2.38,0,0,1,.57,1.18,2.79,2.79,0,0,1-.16,1.52,2.63,2.63,0,0,1-1,1.22,3.77,3.77,0,0,1-1.58.62,6.37,6.37,0,0,1-1.95,0,7.12,7.12,0,0,1-2-.65,4.24,4.24,0,0,0-.6-.29L199,26l.23.34a3.77,3.77,0,0,0,1,.81,4.77,4.77,0,0,0,2.78.41,2.57,2.57,0,0,0,1.16-.45,1.53,1.53,0,0,0,.56-1,1.36,1.36,0,0,0-.25-1.1,1.92,1.92,0,0,0-.65-.57,3.78,3.78,0,0,0-.75-.38c-.22-.09-.55-.21-1-.34l-1-.36a8.5,8.5,0,0,1-.86-.43,4.37,4.37,0,0,1-.86-.64,2,2,0,0,1-.56-1.17,2.53,2.53,0,0,1,.14-1.26,2.21,2.21,0,0,1,.67-.94,3.86,3.86,0,0,1,2.76-.81A6.23,6.23,0,0,1,205.31,19Z"/><path class="cls-1" d="M1.41,34.5V44.86H0V34.5Z"/><path class="cls-1" d="M12.87,34.5l6,8.15-.08-8.15h1.11l-.08,10.36h-.88l-6.6-9,.08,9H11.26l.08-10.36Z"/><path class="cls-1" d="M31.49,34.5,35.21,43l3.73-8.45h1.5V44.86H39V36L35.2,44.67h-.76L30.65,36l.15,8.86H29.7l0-10.36Z"/><path class="cls-1" d="M59.86,35.81a5.42,5.42,0,0,1,1.19,1.75,5.12,5.12,0,0,1,.43,2.12A5,5,0,0,1,61,41.81a5.37,5.37,0,0,1-1.19,1.75,5.59,5.59,0,0,1-1.79,1.16,5.53,5.53,0,0,1-2.17.43,5.76,5.76,0,0,1-2.18-.43,6.07,6.07,0,0,1-1.79-1.16,5.65,5.65,0,0,1-1.19-1.75,5.21,5.21,0,0,1-.44-2.13,5.31,5.31,0,0,1,.44-2.13,5.54,5.54,0,0,1,1.19-1.74,5.93,5.93,0,0,1,1.79-1.18,5.78,5.78,0,0,1,4.35,0A5.6,5.6,0,0,1,59.86,35.81Zm-4.8-.9a3.31,3.31,0,0,0-2.49,1.73A4.93,4.93,0,0,0,52,40.15,6,6,0,0,0,53,42.48a5,5,0,0,0,1.72,1.57,3.46,3.46,0,0,0,2,.4,3.21,3.21,0,0,0,1.82-.87,4.17,4.17,0,0,0,1.13-1.9,5.31,5.31,0,0,0,.1-2.45A6,6,0,0,0,58.9,37a4.8,4.8,0,0,0-1.57-1.54,3.44,3.44,0,0,0-1.87-.57Z"/><path class="cls-1" d="M74.39,34.5a6.2,6.2,0,0,1,1.78.23,2.48,2.48,0,0,1,1.14.62,2.21,2.21,0,0,1,.56.84,1.94,1.94,0,0,1,.13.93,2.17,2.17,0,0,1-.53,1.32,2.91,2.91,0,0,1-1.37.88,3.36,3.36,0,0,1,1.85,1A2.72,2.72,0,0,1,78.66,42a2.16,2.16,0,0,1-.09.87,3.1,3.1,0,0,1-.43.85,2.63,2.63,0,0,1-.89.71,4.27,4.27,0,0,1-1.36.41,7.55,7.55,0,0,1-1.07.06H71.33V34.5Zm-1.66,4.56H74.3a2.62,2.62,0,0,0,.94-.17,1.73,1.73,0,0,0,.9-.71,2,2,0,0,0,.3-1,2.09,2.09,0,0,0-.3-1.12,1.56,1.56,0,0,0-.9-.7,2.68,2.68,0,0,0-.89-.11H72.73Zm0,5.12h2.09l.42,0a2.71,2.71,0,0,0,.47-.11,2,2,0,0,0,1-.84A2.34,2.34,0,0,0,77.11,42a2.38,2.38,0,0,0-2.33-2.23h-2Z"/><path class="cls-1" d="M90,34.5V44.86H88.55V34.5Z"/><path class="cls-1" d="M101.2,34.5v9.41l6-.11v1.06H99.81V34.5Z"/><path class="cls-1" d="M118.46,34.5V44.86H117V34.5Z"/><path class="cls-1" d="M134.07,34.5l4.48,10.36H137l-1.63-3.92h-4.15l-1.74,3.92h-1.18l4.77-10.36Zm-2.54,5.75h3.54l-1.77-4Z"/><path class="cls-1" d="M151.14,34.5a5.05,5.05,0,0,1,1.5.19,3.43,3.43,0,0,1,1.12.48,2.38,2.38,0,0,1,.72.69,2,2,0,0,1,.4.77,2.08,2.08,0,0,1,.09.77,2.49,2.49,0,0,1-.8,1.67,3.39,3.39,0,0,1-2,.84h-.48q1.37,1.61,4.51,4.92h-1.71l-3.75-4.45a.91.91,0,0,0-.88-.27v4.74H148.4V34.5Zm-1.33,4.93h1.29a2.33,2.33,0,0,0,1.67-.62,1.89,1.89,0,0,0,.66-1.39,2.46,2.46,0,0,0-.12-.76A3.07,3.07,0,0,0,153,36a1.66,1.66,0,0,0-.62-.55,2,2,0,0,0-.9-.2h-1.64Z"/><path class="cls-1" d="M167.41,34.5V44.86H166V34.5Z"/><path class="cls-1" d="M186.83,35.81A5.27,5.27,0,0,1,188,37.56a5.13,5.13,0,0,1,.44,2.12,5.19,5.19,0,0,1-.45,2.13,5.37,5.37,0,0,1-1.19,1.75,5.71,5.71,0,0,1-4,1.59,5.76,5.76,0,0,1-2.18-.43,6.07,6.07,0,0,1-1.79-1.16,5.83,5.83,0,0,1-1.19-1.75,5.38,5.38,0,0,1-.44-2.13,5.15,5.15,0,0,1,.45-2.13,5.54,5.54,0,0,1,1.19-1.74,5.88,5.88,0,0,1,1.78-1.18,5.8,5.8,0,0,1,4.36,0A5.56,5.56,0,0,1,186.83,35.81Zm-4.79-.9a3.28,3.28,0,0,0-2.49,1.73,4.93,4.93,0,0,0-.57,3.51,6,6,0,0,0,1,2.33,5,5,0,0,0,1.71,1.57,3.46,3.46,0,0,0,2,.4,3.26,3.26,0,0,0,1.83-.87,4.15,4.15,0,0,0,1.12-1.9,5.18,5.18,0,0,0,.1-2.45,5.63,5.63,0,0,0-.86-2.22,4.87,4.87,0,0,0-1.56-1.54,3.49,3.49,0,0,0-1.87-.57Z"/><path class="cls-1" d="M205.26,35.21l-.15,1.13a3.12,3.12,0,0,0-.72-.64A4.18,4.18,0,0,0,202.5,35a3.83,3.83,0,0,0-1.44.05,2,2,0,0,0-1.07.61,1.41,1.41,0,0,0-.34,1,1.23,1.23,0,0,0,.33.85,3.25,3.25,0,0,0,.71.5,8.35,8.35,0,0,0,.78.36l1,.35c.5.16.88.29,1.15.4a6.89,6.89,0,0,1,1,.47,3.31,3.31,0,0,1,.88.66,2.49,2.49,0,0,1,.61,1.26,3,3,0,0,1-.17,1.62,2.89,2.89,0,0,1-1,1.29,4.21,4.21,0,0,1-1.68.67,6.91,6.91,0,0,1-2.08,0,7.23,7.23,0,0,1-2.09-.69,4.15,4.15,0,0,0-.65-.31l.2-1.44.24.37a3.9,3.9,0,0,0,1.1.85,4.71,4.71,0,0,0,1.42.45,5,5,0,0,0,1.54,0,2.67,2.67,0,0,0,1.23-.49,1.57,1.57,0,0,0,.6-1.07,1.44,1.44,0,0,0-.26-1.17,2.07,2.07,0,0,0-.69-.61,4.4,4.4,0,0,0-.81-.41c-.23-.09-.58-.21-1-.36l-1.08-.38a7.79,7.79,0,0,1-.92-.46,4.23,4.23,0,0,1-.91-.68,2.18,2.18,0,0,1-.61-1.24,2.77,2.77,0,0,1,.15-1.35,2.53,2.53,0,0,1,.72-1,4.16,4.16,0,0,1,2.94-.86A6.57,6.57,0,0,1,205.26,35.21Z"/></svg>