<svg id="Layer_1" data-name="Layer 1" xmlns="http://www.w3.org/2000/svg" viewBox="0 0 1155.81 608.04"><defs><style>.cls-1{fill:#0063a6;}.cls-2{fill:#fff;}.cls-3{fill:#1f140f;}</style></defs><polygon class="cls-1" points="0 460.17 266.44 608.04 523.71 447.37 523.71 147.99 261.85 0 0 147.99 0 460.17"/><path class="cls-2" d="M381,425.71l-163-84V139.37a14.8,14.8,0,0,0-29.59,0V341.53l-81.06,40.2V192.59a14.8,14.8,0,0,0-29.59,0V405.48c0,.12,0,.23,0,.35A14.42,14.42,0,0,0,79.28,412c.06.11.15.19.21.3a15,15,0,0,0,1.54,2.2,11.63,11.63,0,0,0,.8,1,14.28,14.28,0,0,0,2,1.65c.36.26.66.59,1,.81l0,0L259.31,521.19a14.84,14.84,0,0,0,20.28-5.09A14.6,14.6,0,0,0,274.46,496L123.31,406.61,203,367.06l164.33,84.7a14.87,14.87,0,0,0,19.95-6.26A14.62,14.62,0,0,0,381,425.71Z"/><path class="cls-2" d="M451.08,337.4,332,279.88V92.8a14.8,14.8,0,0,0-29.59,0V289.05a14.64,14.64,0,0,0,8.32,13.19l127.42,61.54a14.64,14.64,0,0,0,6.47,1.49A14.8,14.8,0,0,0,457.9,357,14.62,14.62,0,0,0,451.08,337.4Z"/><path class="cls-1" d="M666.65,275.13V236h-60v39.13H590.47V149.75h16.15v81.69h60V149.75H682.8V275.13Z"/><path class="cls-1" d="M771.13,149.75q16.14,0,28.59,5.13a62.79,62.79,0,0,1,21,13.77,57.85,57.85,0,0,1,12.92,19.95,67,67,0,0,1,0,47.59,58.11,58.11,0,0,1-12.83,20A61.74,61.74,0,0,1,800,270a72.7,72.7,0,0,1-28.11,5.13q-16.15,0-28.69-5.13a62.59,62.59,0,0,1-21.08-13.77,57.52,57.52,0,0,1-12.92-20,67.33,67.33,0,0,1,.09-48,58.42,58.42,0,0,1,12.92-19.95A61.38,61.38,0,0,1,743,154.79,73.86,73.86,0,0,1,771.13,149.75Zm-.19,119.68a44.06,44.06,0,0,0,19.95-4.65A52.48,52.48,0,0,0,807,252.33a60,60,0,0,0,10.83-18,58.69,58.69,0,0,0,4-21.47,57.54,57.54,0,0,0-4.08-21.46,60.56,60.56,0,0,0-11-18.05,53.89,53.89,0,0,0-16.23-12.45,43.25,43.25,0,0,0-19.57-4.65,42.08,42.08,0,0,0-19.38,4.65,53.65,53.65,0,0,0-16,12.45,58.6,58.6,0,0,0-10.73,18.05A59.87,59.87,0,0,0,721,212.82a61.14,61.14,0,0,0,3.8,21.47,57.9,57.9,0,0,0,10.54,18,52,52,0,0,0,15.86,12.45A42.88,42.88,0,0,0,770.94,269.43Z"/><path class="cls-1" d="M936.78,149.75l-37.23,68.58v56.8H883.4v-56.8l-36.85-68.58h16.71l32.68,61.36,34.76-61.36Z"/><path class="cls-1" d="M1008.77,149.75q16.15,0,28.6,5.13a62.79,62.79,0,0,1,21,13.77,57.83,57.83,0,0,1,12.91,19.95,67,67,0,0,1,0,47.59,57.94,57.94,0,0,1-12.82,20,61.94,61.94,0,0,1-20.8,13.77,72.73,72.73,0,0,1-28.11,5.13q-16.15,0-28.69-5.13a62.54,62.54,0,0,1-21.09-13.77,57.64,57.64,0,0,1-12.91-20,67.33,67.33,0,0,1,.09-48,58.42,58.42,0,0,1,12.92-19.95,61.38,61.38,0,0,1,20.8-13.58A73.84,73.84,0,0,1,1008.77,149.75Zm-.19,119.68a44,44,0,0,0,19.95-4.65,52.4,52.4,0,0,0,16.15-12.45,59.77,59.77,0,0,0,10.82-18,58.49,58.49,0,0,0,4-21.47,57.35,57.35,0,0,0-4.09-21.46,60.74,60.74,0,0,0-11-18.05,53.8,53.8,0,0,0-16.24-12.45,43.22,43.22,0,0,0-19.57-4.65,42.07,42.07,0,0,0-19.37,4.65,53.65,53.65,0,0,0-16,12.45,58.6,58.6,0,0,0-10.73,18.05,59.87,59.87,0,0,0-3.89,21.46,61.14,61.14,0,0,0,3.8,21.47,57.9,57.9,0,0,0,10.54,18,52,52,0,0,0,15.86,12.45A42.87,42.87,0,0,0,1008.58,269.43Z"/><path class="cls-1" d="M1147.64,160.58a53.57,53.57,0,0,0-5.32-2.47c-1.65-.63-3.48-1.23-5.51-1.8a23,23,0,0,0-6.27-.86,24.86,24.86,0,0,0-7.4,1.24,22.05,22.05,0,0,0-7.41,4,23.61,23.61,0,0,0-5.8,7,21,21,0,0,0-2.37,10.36,18.37,18.37,0,0,0,3.6,10.92,60.42,60.42,0,0,0,8.93,9.78q5.33,4.76,11.59,9.5a106.33,106.33,0,0,1,11.59,10.17,56.68,56.68,0,0,1,8.93,11.77,28.2,28.2,0,0,1,3.61,14.16,33.73,33.73,0,0,1-2,11.58,27.51,27.51,0,0,1-6.08,9.79,29.36,29.36,0,0,1-10.44,6.84,39.79,39.79,0,0,1-14.91,2.56,46.27,46.27,0,0,1-10.93-1.14,41.54,41.54,0,0,1-7.88-2.66,27.81,27.81,0,0,1-6.27-4l.38-7.79a24.47,24.47,0,0,0,5.89,4.94,32.67,32.67,0,0,0,7,3.42,26.88,26.88,0,0,0,9.3,1.52,18.09,18.09,0,0,0,8.55-2,18.72,18.72,0,0,0,6.27-5.23,24.42,24.42,0,0,0,3.8-7.31,26.43,26.43,0,0,0,1.33-8.26,23,23,0,0,0-3.51-12.45,51.26,51.26,0,0,0-8.93-10.54q-5.42-4.93-11.59-9.59a133.87,133.87,0,0,1-11.59-9.79,50.46,50.46,0,0,1-8.92-11.11,26.26,26.26,0,0,1-3.52-13.58,28.21,28.21,0,0,1,1.62-9.12,30.16,30.16,0,0,1,5.79-9.69,25.84,25.84,0,0,1,12.44-8.64,48,48,0,0,1,14.15-2.19,69.93,69.93,0,0,1,8.36.48c2.66.32,5,.69,7,1.14s4.24,1,6.65,1.61Z"/><path class="cls-3" d="M657.24,435.4v6.37H590.47V306.18h17.46V435.4Z"/><path class="cls-3" d="M674.49,306.18H692v95.94c0,2.05.13,5.61.41,10.68a26.32,26.32,0,0,0,3.7,12.84,21.71,21.71,0,0,0,9.24,8.11q6,2.88,16.64,2.88,7,0,17.67-3.08t17.25-9.66V306.18h17.47V441.77H756.87v-11.3a60.1,60.1,0,0,1-19.2,8.73,93.92,93.92,0,0,1-22.91,2.57q-20.14,0-30.19-10t-10.08-26.6Z"/><path class="cls-3" d="M905.6,432.32a75.85,75.85,0,0,1-18,7.08A84,84,0,0,1,867,441.77q-17.68,0-31.13-5.55a67.69,67.69,0,0,1-22.7-14.9,62.33,62.33,0,0,1-14-21.57,72.89,72.89,0,0,1,.1-51.87,63,63,0,0,1,14-21.57,66.45,66.45,0,0,1,22.49-14.69q13.35-5.43,30.4-5.44,17.46,0,30.92,5.55a67.67,67.67,0,0,1,22.7,14.89,62.42,62.42,0,0,1,14,21.57A70.87,70.87,0,0,1,938.47,374,75,75,0,0,1,937,388.15a76,76,0,0,1-4.21,14.17,64.86,64.86,0,0,1-7,12.74,40.48,40.48,0,0,1-9.76,9.86l17,16.85H915.67ZM866,435.6a49.2,49.2,0,0,0,31.44-11.3L878.9,406.43h18.9l8.83,8.83a66.41,66.41,0,0,0,10.48-18.89,63.63,63.63,0,0,0,3.9-22,62.31,62.31,0,0,0-4.41-23.21,65.62,65.62,0,0,0-11.92-19.52,58.08,58.08,0,0,0-17.56-13.45,46.69,46.69,0,0,0-21.17-5,45.43,45.43,0,0,0-21,5,57.67,57.67,0,0,0-17.25,13.45,63.24,63.24,0,0,0-11.61,19.52,64.84,64.84,0,0,0-4.21,23.21A66.11,66.11,0,0,0,816,397.6a62.49,62.49,0,0,0,11.4,19.51,56.29,56.29,0,0,0,17.15,13.46A46.28,46.28,0,0,0,866,435.6Z"/><path class="cls-3" d="M960.86,306.18h17.46v95.94c0,2.05.13,5.61.41,10.68a26.54,26.54,0,0,0,3.7,12.84,21.77,21.77,0,0,0,9.24,8.11q6,2.88,16.64,2.88,7,0,17.67-3.08t17.26-9.66V306.18h17.46V441.77h-17.46v-11.3A60.15,60.15,0,0,1,1024,439.2a93.81,93.81,0,0,1-22.91,2.57q-20.13,0-30.19-10t-10.07-26.6Z"/><path class="cls-3" d="M1151.29,435.4v6.37h-66.77V306.18h67.18v6.37H1102v82h40.06v4.93H1102V435.4Z"/><path class="cls-3" d="M597.3,518.16a12.73,12.73,0,0,1,3.84.53,9,9,0,0,1,2.8,1.25,7.65,7.65,0,0,1,1.84,1.79,6,6,0,0,1,1.34,3.85,6.42,6.42,0,0,1-.51,2.42,7.8,7.8,0,0,1-1.58,2.39,7.33,7.33,0,0,1-3.06,1.87,13.16,13.16,0,0,1-4.57.73h-3.53c0,2.3,0,6.19,0,11.67h-3.57v-26.5Zm-3.41,13.1h4.3a4.93,4.93,0,0,0,2.32-.52,4,4,0,0,0,1.54-1.4,7.09,7.09,0,0,0,.85-1.81,6.58,6.58,0,0,0,.28-1.9,6.37,6.37,0,0,0-.3-1.93,8,8,0,0,0-.87-1.83,4.06,4.06,0,0,0-1.6-1.4,5.11,5.11,0,0,0-2.32-.53h-4.2Z"/><path class="cls-3" d="M639.33,518.16a13.19,13.19,0,0,1,3.84.49,9.29,9.29,0,0,1,2.86,1.21,6.36,6.36,0,0,1,1.84,1.77,5.25,5.25,0,0,1,1,2,5.15,5.15,0,0,1,.22,2,6.4,6.4,0,0,1-2,4.27,8.57,8.57,0,0,1-5.25,2.15c-.33,0-.73,0-1.22,0q3.46,4.1,11.53,12.57h-4.37l-9.59-11.38a2.37,2.37,0,0,0-2.25-.71v12.14h-3.62v-26.5Zm-3.4,12.62h3.28a5.94,5.94,0,0,0,4.28-1.6,4.85,4.85,0,0,0,1.69-3.55,6.09,6.09,0,0,0-.31-1.93,8,8,0,0,0-.87-1.83,4.14,4.14,0,0,0-1.58-1.4,5,5,0,0,0-2.32-.53h-4.17Z"/><path class="cls-3" d="M699.77,521.51a13.56,13.56,0,0,1,3,4.48,13.66,13.66,0,0,1,0,10.88,13.84,13.84,0,0,1-3,4.46,14.13,14.13,0,0,1-4.57,3,14.36,14.36,0,0,1-5.56,1.1,14.94,14.94,0,0,1-5.58-1.12,15.49,15.49,0,0,1-4.58-3,14.64,14.64,0,0,1-3-4.49,13.68,13.68,0,0,1,0-10.89,14.18,14.18,0,0,1,3-4.44,15,15,0,0,1,4.56-3,14.16,14.16,0,0,1,5.58-1.09,14.74,14.74,0,0,1,10.15,4.1Zm-12.26-2.3a8.44,8.44,0,0,0-6.37,4.43,12.52,12.52,0,0,0-1.44,9,15.15,15.15,0,0,0,2.42,6,12.87,12.87,0,0,0,4.38,4,8.76,8.76,0,0,0,5.21,1,8.13,8.13,0,0,0,4.67-2.21,10.58,10.58,0,0,0,2.88-4.87,13.34,13.34,0,0,0,.26-6.27,14.67,14.67,0,0,0-2.21-5.66,12.38,12.38,0,0,0-4-4,8.85,8.85,0,0,0-4.78-1.46C688.09,519.17,687.76,519.19,687.51,519.21Z"/><path class="cls-3" d="M747,518.16v2.76l-14.3-.2v8.44l10.67-.31v2.74l-10.67-.1v13.17h-3.57v-26.5Z"/><path class="cls-3" d="M790.08,518.16v2.76l-14.32-.29V529l10.67-.1v2.74l-10.67-.1v10.73l15.76-.28v2.72H772.19v-26.5Z"/><path class="cls-3" d="M834.49,520l-.37,2.88a7,7,0,0,0-1.84-1.63,10.37,10.37,0,0,0-4.83-1.76,9.5,9.5,0,0,0-3.7.12,5,5,0,0,0-2.73,1.56,3.63,3.63,0,0,0-.88,2.48,3.25,3.25,0,0,0,.86,2.17,7.73,7.73,0,0,0,1.8,1.28c.76.37,1.43.69,2,.93l2.54.89q1.9.62,2.94,1a15.64,15.64,0,0,1,2.43,1.19,8.57,8.57,0,0,1,2.25,1.69,6.39,6.39,0,0,1,1.57,3.22,7.61,7.61,0,0,1-.43,4.14,7.38,7.38,0,0,1-2.66,3.31,10.31,10.31,0,0,1-4.3,1.7,16.9,16.9,0,0,1-5.31,0,19.15,19.15,0,0,1-5.36-1.76,11.19,11.19,0,0,0-1.64-.79l.5-3.68c.31.49.52.8.61.94a10.34,10.34,0,0,0,2.82,2.19,11.68,11.68,0,0,0,3.61,1.13,12,12,0,0,0,4,0,7.13,7.13,0,0,0,3.14-1.23,4.15,4.15,0,0,0,1.55-2.74,3.7,3.7,0,0,0-.69-3,5.37,5.37,0,0,0-1.77-1.57,11.2,11.2,0,0,0-2.05-1c-.59-.25-1.49-.56-2.68-.93s-2.12-.73-2.76-1a17.63,17.63,0,0,1-2.35-1.18,11.31,11.31,0,0,1-2.33-1.74,5.53,5.53,0,0,1-1.54-3.16,7.19,7.19,0,0,1,.38-3.45,6.27,6.27,0,0,1,1.83-2.56,10.58,10.58,0,0,1,7.52-2.19A16.64,16.64,0,0,1,834.49,520Z"/><path class="cls-3" d="M865.61,518.16v26.5H862v-26.5Z"/><path class="cls-3" d="M915.27,521.51a13.71,13.71,0,0,1,3,4.48,13.77,13.77,0,0,1,0,10.88,13.71,13.71,0,0,1-3,4.46,14,14,0,0,1-4.56,3,14.36,14.36,0,0,1-5.56,1.1,14.9,14.9,0,0,1-5.58-1.12,15.49,15.49,0,0,1-4.58-3,14.85,14.85,0,0,1-3.05-4.49,13.8,13.8,0,0,1,0-10.89,14.2,14.2,0,0,1,3.05-4.44,15,15,0,0,1,4.56-3,14.13,14.13,0,0,1,5.58-1.09,14.74,14.74,0,0,1,10.15,4.1ZM903,519.21a8.42,8.42,0,0,0-6.37,4.43,12.52,12.52,0,0,0-1.44,9,15.29,15.29,0,0,0,2.41,6,13,13,0,0,0,4.39,4,8.74,8.74,0,0,0,5.21,1,8.13,8.13,0,0,0,4.67-2.21,10.58,10.58,0,0,0,2.88-4.87,13.34,13.34,0,0,0,.26-6.27,14.67,14.67,0,0,0-2.21-5.66,12.38,12.38,0,0,0-4-4,8.85,8.85,0,0,0-4.78-1.46C903.59,519.17,903.26,519.19,903,519.21Z"/><path class="cls-3" d="M948.74,518.16,964,539l-.2-20.86h2.82l-.18,26.5h-2.25l-16.88-22.93.18,22.93h-2.82l.2-26.5Z"/><path class="cls-3" d="M1006.49,518.16l11.46,26.5H1014l-4.16-10H999.23l-4.44,10h-3l12.22-26.5ZM1000,532.87h9.07l-4.55-10.25Z"/><path class="cls-3" d="M1046.72,518.16v24.06l15.31-.28v2.72h-18.88v-26.5Z"/><path class="cls-3" d="M1105.12,518.16v2.76l-14.32-.29V529l10.67-.1v2.74l-10.67-.1v10.73l15.76-.28v2.72h-19.33v-26.5Z"/><path class="cls-3" d="M1149.53,520l-.37,2.88a7,7,0,0,0-1.84-1.63,10.37,10.37,0,0,0-4.83-1.76,9.45,9.45,0,0,0-3.69.12,5,5,0,0,0-2.74,1.56,3.58,3.58,0,0,0-.87,2.48,3.24,3.24,0,0,0,.85,2.17,8,8,0,0,0,1.8,1.28c.76.37,1.43.69,2,.93l2.54.89q1.9.62,2.94,1a15.64,15.64,0,0,1,2.43,1.19,8.81,8.81,0,0,1,2.26,1.69,6.46,6.46,0,0,1,1.56,3.22,7.61,7.61,0,0,1-.43,4.14,7.38,7.38,0,0,1-2.66,3.31,10.26,10.26,0,0,1-4.3,1.7,16.9,16.9,0,0,1-5.31,0,19.15,19.15,0,0,1-5.36-1.76,11.19,11.19,0,0,0-1.64-.79l.51-3.68.6.94a10.49,10.49,0,0,0,2.82,2.19,11.68,11.68,0,0,0,3.61,1.13,12,12,0,0,0,4,0,7.12,7.12,0,0,0,3.15-1.23,4.14,4.14,0,0,0,1.54-2.74,3.7,3.7,0,0,0-.69-3,5.37,5.37,0,0,0-1.77-1.57,11.2,11.2,0,0,0-2-1q-.88-.37-2.67-.93c-1.21-.41-2.13-.73-2.76-1a17.07,17.07,0,0,1-2.36-1.18,11.31,11.31,0,0,1-2.33-1.74,5.53,5.53,0,0,1-1.54-3.16,7.19,7.19,0,0,1,.38-3.45,6.27,6.27,0,0,1,1.83-2.56,10.6,10.6,0,0,1,7.53-2.19A16.64,16.64,0,0,1,1149.53,520Z"/><path class="cls-3" d="M594.17,562.08V590.3h-3.85V562.08Z"/><path class="cls-3" d="M625.39,562.08l16.2,22.22-.21-22.22h3l-.2,28.22h-2.39l-18-24.41L624,590.3h-3l.22-28.22Z"/><path class="cls-3" d="M676.09,562.08l10.14,23,10.15-23h4.08V590.3h-3.84V566.17L686.2,589.78h-2.07L673.8,566.17l.41,24.13h-3l.11-28.22Z"/><path class="cls-3" d="M753.35,565.65a14.4,14.4,0,0,1,3.24,4.77,14.59,14.59,0,0,1,0,11.59,14.52,14.52,0,0,1-3.24,4.75,15.55,15.55,0,0,1-10.78,4.34,15.59,15.59,0,0,1-5.94-1.19,16.38,16.38,0,0,1-4.88-3.15,15.85,15.85,0,0,1-3.25-4.78,14.52,14.52,0,0,1-1.18-5.79,14.27,14.27,0,0,1,1.21-5.81,15.17,15.17,0,0,1,3.24-4.73,15.74,15.74,0,0,1,4.86-3.2,15,15,0,0,1,5.94-1.17,15.74,15.74,0,0,1,10.8,4.37Zm-13.05-2.44a8.93,8.93,0,0,0-6.78,4.71,13.41,13.41,0,0,0-1.54,9.55,16.21,16.21,0,0,0,2.58,6.35,13.62,13.62,0,0,0,4.66,4.28,9.37,9.37,0,0,0,5.56,1.08,8.66,8.66,0,0,0,5-2.36,11.31,11.31,0,0,0,3.06-5.18,14.14,14.14,0,0,0,.28-6.68,15.65,15.65,0,0,0-2.35-6,13.25,13.25,0,0,0-4.26-4.21,9.4,9.4,0,0,0-5.1-1.56A9.75,9.75,0,0,0,740.3,563.21Z"/><path class="cls-3" d="M792.93,562.08a16.48,16.48,0,0,1,4.86.63,6.92,6.92,0,0,1,3.12,1.69,6,6,0,0,1,1.51,2.29,5.21,5.21,0,0,1,.34,2.52,6,6,0,0,1-1.42,3.61,8.2,8.2,0,0,1-3.74,2.4,9,9,0,0,1,5,2.72,7.4,7.4,0,0,1,1.94,4.48,5.4,5.4,0,0,1-.26,2.35,7.63,7.63,0,0,1-1.17,2.31,6.87,6.87,0,0,1-2.42,1.95,12.13,12.13,0,0,1-3.69,1.12,22.68,22.68,0,0,1-2.92.15h-9.5V562.08Zm-4.51,12.43h4.28a7,7,0,0,0,2.57-.46,4.79,4.79,0,0,0,2.44-1.94,5.32,5.32,0,0,0,.82-2.85,5.73,5.73,0,0,0-.82-3.07,4.25,4.25,0,0,0-2.46-1.9,7.68,7.68,0,0,0-2.42-.31h-4.41Zm0,13.93h3.11l1.17,0,1.4,0,1.17-.1a11.07,11.07,0,0,0,1.27-.28,5.47,5.47,0,0,0,2.81-2.32,6.48,6.48,0,0,0,1-3.35,6.44,6.44,0,0,0-6.35-6h-5.57Z"/><path class="cls-3" d="M835.34,562.08V590.3H831.5V562.08Z"/><path class="cls-3" d="M866,562.08v25.63l16.31-.3v2.89H862.17V562.08Z"/><path class="cls-3" d="M913,562.08V590.3h-3.85V562.08Z"/><path class="cls-3" d="M955.48,562.08l12.21,28.22H963.5l-4.43-10.67H947.75L943,590.3H939.8l13-28.22Zm-6.91,15.67h9.66l-4.84-10.91Z"/><path class="cls-3" d="M1002,562.08a14.06,14.06,0,0,1,4.08.52,9.85,9.85,0,0,1,3,1.3,6.81,6.81,0,0,1,2,1.88,5.77,5.77,0,0,1,1.08,2.12,5.65,5.65,0,0,1,.23,2.09,6.79,6.79,0,0,1-2.16,4.54,9.1,9.1,0,0,1-5.59,2.29c-.35,0-.78,0-1.3,0q3.69,4.36,12.27,13.4H1011l-10.22-12.12a2.49,2.49,0,0,0-2.4-.76V590.3h-3.85V562.08Zm-3.63,13.44h3.5a6.33,6.33,0,0,0,4.56-1.7,5.16,5.16,0,0,0,1.79-3.78,6.61,6.61,0,0,0-.32-2.06A8.83,8.83,0,0,0,1007,566a4.24,4.24,0,0,0-1.69-1.49,5.19,5.19,0,0,0-2.46-.57h-4.45Z"/><path class="cls-3" d="M1046.31,562.08V590.3h-3.84V562.08Z"/><path class="cls-3" d="M1099.2,565.65a14.4,14.4,0,0,1,3.24,4.77,14.59,14.59,0,0,1,0,11.59,14.52,14.52,0,0,1-3.24,4.75,15.1,15.1,0,0,1-4.86,3.17,15.28,15.28,0,0,1-5.92,1.17,15.64,15.64,0,0,1-6-1.19,16.64,16.64,0,0,1-4.88-3.15,15.64,15.64,0,0,1-3.24-4.78,14.62,14.62,0,0,1,0-11.6,15.17,15.17,0,0,1,3.24-4.73,16,16,0,0,1,4.86-3.2,15.07,15.07,0,0,1,6-1.17,15.74,15.74,0,0,1,10.8,4.37Zm-13-2.44a9,9,0,0,0-6.79,4.71,13.36,13.36,0,0,0-1.53,9.55,16.34,16.34,0,0,0,2.57,6.35,13.65,13.65,0,0,0,4.67,4.28,9.35,9.35,0,0,0,5.55,1.08,8.63,8.63,0,0,0,5-2.36,11.24,11.24,0,0,0,3.07-5.18,14.27,14.27,0,0,0,.28-6.68,15.65,15.65,0,0,0-2.35-6,13.25,13.25,0,0,0-4.26-4.21,9.4,9.4,0,0,0-5.1-1.56A9.75,9.75,0,0,0,1086.15,563.21Z"/><path class="cls-3" d="M1149.39,564l-.39,3.07a7.52,7.52,0,0,0-2-1.73,10.94,10.94,0,0,0-5.14-1.88,9.89,9.89,0,0,0-3.93.13,5.36,5.36,0,0,0-2.92,1.66,3.82,3.82,0,0,0-.93,2.64,3.45,3.45,0,0,0,.91,2.31,8.25,8.25,0,0,0,1.92,1.36c.81.4,1.52.74,2.14,1l2.7.95c1.36.43,2.4.79,3.13,1.08a16.85,16.85,0,0,1,2.6,1.27,9.37,9.37,0,0,1,2.4,1.79,6.86,6.86,0,0,1,1.66,3.44,8.12,8.12,0,0,1-.45,4.41,7.87,7.87,0,0,1-2.83,3.52,11,11,0,0,1-4.59,1.81,18.22,18.22,0,0,1-5.66,0,20.3,20.3,0,0,1-5.7-1.88,13.9,13.9,0,0,0-1.75-.84l.54-3.91c.33.52.55.85.65,1a10.8,10.8,0,0,0,3,2.34,13.59,13.59,0,0,0,8.06,1.21,7.64,7.64,0,0,0,3.35-1.32,4.39,4.39,0,0,0,1.64-2.92,4,4,0,0,0-.73-3.2,5.81,5.81,0,0,0-1.88-1.66,12,12,0,0,0-2.18-1.1c-.64-.26-1.59-.59-2.86-1s-2.26-.77-2.94-1a20.09,20.09,0,0,1-2.5-1.26,11.94,11.94,0,0,1-2.49-1.85,6,6,0,0,1-1.64-3.37,7.65,7.65,0,0,1,.41-3.68,6.74,6.74,0,0,1,2-2.72,11.2,11.2,0,0,1,8-2.33A17.76,17.76,0,0,1,1149.39,564Z"/></svg>